USFL
nRows=115
nColumns=2
inDegrees=yes
endheader
time	tib_ant_r	
2.6875	 66.752709	
2.75	 66.771875	
2.8125	 66.749234	
2.875	 66.761501	
2.9375	 66.759674	
3	 66.758076	
3.0625	 66.751588	
3.125	 66.743254	
3.1875	 66.788919	
3.25	 66.764661	
3.3125	 66.790316	
3.375	 66.788732	
3.4375	 66.766849	
3.5	 66.758287	
3.5625	 66.767021	
3.625	 66.766773	
3.6875	 66.830959	
3.75	 66.837220	
3.8125	 66.852248	
3.875	 66.897298	
3.9375	 66.914851	
4	 66.897532	
4.0625	 66.921495	
4.125	 66.904076	
4.1875	 66.903685	
4.25	 66.736190	
4.3125	 66.620871	
4.375	 66.580407	
4.4375	 66.588917	
4.5	 66.923266	
4.5625	 66.959606	
4.625	 67.094074	
4.6875	 67.600570	
4.75	 67.695768	
4.8125	 50.001931	
4.875	 50.210294	
4.9375	 50.268377	
5	 50.011009	
5.0625	 49.742437	
5.125	 49.634962	
5.1875	 49.735193	
5.25	 49.890451	
5.3125	 49.802436	
5.375	 49.884161	
5.4375	 49.761434	
5.5	 49.744096	
5.5625	 49.733289	
5.625	 49.884575	
5.6875	 50.025642	
5.75	 49.980405	
5.8125	 49.940499	
5.875	 49.850595	
5.9375	 49.837367	
6	 49.782099	
6.0625	 49.746163	
6.125	 49.773717	
6.1875	 49.828560	
6.25	 49.816101	
6.3125	 49.916330	
6.375	 49.953032	
6.4375	 49.935523	
6.5	 50.014358	
6.5625	 50.007729	
6.625	 49.979444	
6.6875	 50.025619	
6.75	 50.098759	
6.8125	 50.104933	
6.875	 50.139285	
6.9375	 50.171756	
7	 50.181997	
7.0625	 50.208397	
7.125	 50.331209	
7.1875	 50.383554	
7.25	 50.409794	
7.3125	 50.415702	
7.375	 50.527743	
7.4375	 50.533632	
7.5	 50.552806	
7.5625	 50.522660	
7.625	 50.539355	
7.6875	 50.553850	
7.75	 50.571382	
7.8125	 50.632035	
7.875	 50.614642	
7.9375	 50.789237	
8	 50.661800	
8.0625	 50.645589	
8.125	 50.682214	
8.1875	 50.620232	
8.25	 50.617876	
8.3125	 50.629349	
8.375	 50.615322	
8.4375	 50.665636	
8.5	 50.672720	
8.5625	 50.674945	
8.625	 50.748099	
8.6875	 50.728455	
8.75	 50.771948	
8.8125	 50.808256	
8.875	 50.809237	
8.9375	 50.902789	
9	 51.051393	
9.0625	 51.004641	
9.125	 51.152444	
9.1875	 51.461143	
9.25	 51.311833	
9.3125	 51.854017	
9.375	 52.092779	
9.4375	 63.273260	
9.5	 62.981087	
9.5625	 62.708285	
9.625	 62.454887	
9.6875	 62.409563	
9.75	 62.342031	
9.8125	 62.336773	
